Coordinates
version=1
nRows=8
nColumns=40
inDegrees=yes

Units are S.I. units (second, meters, Newtons, ...)
Angles are in degrees.

endheader
time	pelvis_tilt	pelvis_list	pelvis_rotation	pelvis_tx	pelvis_ty	pelvis_tz	hip_flexion_r	hip_adduction_r	hip_rotation_r	knee_angle_r	knee_angle_r_beta	ankle_angle_r	subtalar_angle_r	mtp_angle_r	hip_flexion_l	hip_adduction_l	hip_rotation_l	knee_angle_l	knee_angle_l_beta	ankle_angle_l	subtalar_angle_l	mtp_angle_l	lumbar_extension	lumbar_bending	lumbar_rotation	arm_flex_r	arm_add_r	arm_rot_r	elbow_flex_r	pro_sup_r	wrist_flex_r	wrist_dev_r	arm_flex_l	arm_add_l	arm_rot_l	elbow_flex_l	pro_sup_l	wrist_flex_l	wrist_dev_l
     46.62114286	     -2.86589919	     -5.88983389	      5.19815641	      1.07514879	      0.93328107	      0.48112197	      5.64602707	      5.13460429	    -18.42484812	     10.03002919	     10.03002919	     10.13998947	      5.70131065	     -7.26259688	     35.59499166	    -10.78250621	      1.42097075	     52.45023554	     52.45023554	      8.90087562	    -17.23224674	     10.66157116	    -10.32227025	      7.73611772	      5.60132332	     29.06384426	    -16.63263757	    -11.39676279	     33.90973246	     46.72661833	      0.00000000	      0.00000000	      4.12215573	     -6.66650547	      1.93348352	     32.06195106	     46.55409442	      0.00000000	      0.00000000
     46.63228571	     -2.91939806	     -5.90633436	      5.32550510	      1.07418883	      0.93290725	      0.48141041	      4.81197755	      5.35398632	    -18.36278252	      9.37591752	      9.37591752	     10.40529778	      5.85898501	     -7.29500670	     35.99612814	    -10.47471090	      1.35612583	     48.82877675	     48.82877675	      8.81072303	    -16.86300293	     11.04480905	    -10.37985173	      7.64399899	      5.45816590	     31.46004614	    -16.74097365	    -11.14837355	     35.50548202	     46.65422174	      0.00000000	      0.00000000	      2.41742477	     -6.73046657	      1.99247296	     30.37126814	     46.50354359	      0.00000000	      0.00000000
     46.64342857	     -2.99447902	     -5.92933480	      5.42231540	      1.07333965	      0.93239639	      0.48166615	      3.99529085	      5.57349700	    -18.31849854	      8.72189340	      8.72189340	     10.67206662	      6.05310792	     -7.36861606	     36.22754154	    -10.19333330	      1.21779859	     44.92424026	     44.92424026	      8.77930014	    -16.25132939	     11.32417582	    -10.41401353	      7.55125733	      5.36986358	     33.70873403	    -16.81016981	    -10.80561875	     37.13348878	     46.57628385	      0.00000000	      0.00000000	      0.83743271	     -6.81412021	      2.07399474	     28.50913119	     46.45598767	      0.00000000	      0.00000000
     46.65457143	     -3.12692132	     -5.96577649	      5.50610205	      1.07261532	      0.93164048	      0.48184047	      3.24525407	      5.78998587	    -18.23823358	      8.09716060	      8.09716060	     10.95603697	      6.26447766	     -7.46306133	     36.39127296	     -9.93350453	      1.03188319	     40.87555770	     40.87555770	      8.78194358	    -15.35494268	     11.52742842	    -10.32095764	      7.47323152	      5.34397567	     35.88982358	    -16.92988955	    -10.42766882	     38.82857427	     46.49600623	      0.00000000	      0.00000000	     -0.70518948	     -6.84602917	      2.16440857	     26.73220153	     46.41113223	      0.00000000	      0.00000000
     46.66571429	     -3.26417795	     -6.06719356	      5.59285936	      1.07205949	      0.93070943	      0.48195799	      2.50161557	      6.07314117	    -18.19175165	      7.49099195	      7.49099195	     11.25664131	      6.48529784	     -7.56798230	     36.44306763	     -9.73068902	      0.85988588	     36.72767627	     36.72767627	      8.81082215	    -14.20087645	     11.65320527	    -10.21311823	      7.46451522	      5.24795423	     37.97715760	    -16.99939217	     -9.96959040	     40.69804427	     46.40552020	      0.00000000	      0.00000000	     -2.24876099	     -6.88862713	      2.26028863	     24.97620303	     46.36752193	      0.00000000	      0.00000000
     46.67685714	     -3.37220772	     -6.21221177	      5.67946593	      1.07165280	      0.92966056	      0.48195899	      1.69633470	      6.40121872	    -18.16010353	      6.83729466	      6.83729466	     11.51947597	      6.77505003	     -7.65055421	     36.33439548	     -9.57537672	      0.62760070	     32.51692572	     32.51692572	      8.85010825	    -12.79761652	     11.50874384	    -10.18033095	      7.53260387	      4.93677227	     39.94767934	    -16.96863862	     -9.18364470	     43.17256228	     46.27305625	      0.00000000	      0.00000000	     -3.75029886	     -6.87774870	      2.38977544	     23.00202879	     46.32016866	      0.00000000	      0.00000000
     46.68800000	     -3.55902190	     -6.31411002	      5.72427807	      1.07142456	      0.92839089	      0.48189003	      1.06171301	      6.63444375	    -18.08288565	      6.39503842	      6.39503842	     11.89528612	      6.95000320	     -7.74215546	     36.19925885	     -9.40659975	      0.21701827	     28.38384998	     28.38384998	      8.89015940	    -11.10451906	     11.59099466	     -9.98580522	      7.53275274	      4.92768644	     41.73290015	    -17.12624031	     -8.59350454	     45.31512677	     46.16787055	      0.00000000	      0.00000000	     -5.30131863	     -6.91975337	      2.45964560	     21.64237107	     46.28057136	      0.00000000	      0.00000000
     46.69914286	     -3.66491164	     -6.48989199	      5.79094124	      1.07139634	      0.92700002	      0.48174147	      0.33523214	      6.94980121	    -18.01496267	      5.95821099	      5.95821099	     12.29620371	      7.19952003	     -7.74693301	     35.97663292	     -9.31946815	     -0.20945311	     24.54319527	     24.54319527	      8.92971330	     -9.18613758	     11.47116816	     -9.87234030	      7.63747956	      4.66600704	     43.39787226	    -17.13772392	     -7.59313925	     48.39390860	     46.00736078	      0.00000000	      0.00000000	     -6.84529036	     -6.85022139	      2.57805998	     20.30221213	     46.22987592	      0.00000000	      0.00000000
